<svg xmlns="http://www.w3.org/2000/svg" xmlns:xlink="http://www.w3.org/1999/xlink" width="500" zoomAndPan="magnify" viewBox="0 0 375 374.999991" height="500" preserveAspectRatio="xMidYMid meet" version="1.0"><defs><g/><clipPath id="eee59547d5"><path d="M 0.90625 32.730469 L 69.761719 32.730469 L 69.761719 101.582031 L 0.90625 101.582031 Z M 0.90625 32.730469 " clip-rule="nonzero"/></clipPath><clipPath id="bb66f5d3e0"><path d="M 66.402344 32.730469 L 98.492188 32.730469 L 98.492188 101.925781 L 66.402344 101.925781 Z M 66.402344 32.730469 " clip-rule="nonzero"/></clipPath><clipPath id="69241d4325"><path d="M 0.402344 0.730469 L 32.492188 0.730469 L 32.492188 69.925781 L 0.402344 69.925781 Z M 0.402344 0.730469 " clip-rule="nonzero"/></clipPath><clipPath id="b38154701b"><rect x="0" width="33" y="0" height="70"/></clipPath><clipPath id="ab5a1ee271"><path d="M 0.898438 0.640625 L 66.394531 0.640625 L 66.394531 32.730469 L 0.898438 32.730469 Z M 0.898438 0.640625 " clip-rule="nonzero"/></clipPath><clipPath id="dba75fa0f7"><path d="M 0.898438 0.640625 L 66.394531 0.640625 L 66.394531 32.730469 L 0.898438 32.730469 Z M 0.898438 0.640625 " clip-rule="nonzero"/></clipPath><clipPath id="1af4e6978c"><rect x="0" width="67" y="0" height="33"/></clipPath><clipPath id="56ae411411"><path d="M 76.964844 0.640625 L 98.484375 0.640625 L 98.484375 22.164062 L 76.964844 22.164062 Z M 76.964844 0.640625 " clip-rule="nonzero"/></clipPath><clipPath id="01c9102ebd"><path d="M 0.964844 0.640625 L 22.484375 0.640625 L 22.484375 22.164062 L 0.964844 22.164062 Z M 0.964844 0.640625 " clip-rule="nonzero"/></clipPath><clipPath id="d361666c8b"><rect x="0" width="23" y="0" height="23"/></clipPath><clipPath id="0ca9baeb12"><rect x="0" width="99" y="0" height="103"/></clipPath></defs><g transform="matrix(1, 0, 0, 1, 138, 76)"><g clip-path="url(#0ca9baeb12)"><g clip-path="url(#eee59547d5)"><path fill="#ffffff" d="M 70.105469 63.542969 L 70.105469 32.730469 C 31.886719 32.730469 0.90625 63.707031 0.90625 101.925781 L 31.722656 101.925781 C 31.722656 80.726562 48.90625 63.542969 70.105469 63.542969 Z M 70.105469 63.542969 " fill-opacity="1" fill-rule="nonzero"/></g><g clip-path="url(#bb66f5d3e0)"><g transform="matrix(1, 0, 0, 1, 66, 32)"><g clip-path="url(#b38154701b)"><g clip-path="url(#69241d4325)"><path fill="#ffffff" d="M 0.402344 0.730469 L 32.492188 0.730469 L 32.492188 69.917969 L 0.402344 69.917969 Z M 0.402344 0.730469 " fill-opacity="1" fill-rule="nonzero"/></g></g></g></g><g clip-path="url(#ab5a1ee271)"><g transform="matrix(1, 0, 0, 1, 0.000000000000028422, 0)"><g clip-path="url(#1af4e6978c)"><g clip-path="url(#dba75fa0f7)"><path fill="#ffffff" d="M 66.394531 0.640625 L 66.394531 32.730469 L 0.839844 32.730469 L 0.839844 0.640625 Z M 66.394531 0.640625 " fill-opacity="1" fill-rule="nonzero"/></g></g></g></g><g clip-path="url(#56ae411411)"><g transform="matrix(1, 0, 0, 1, 76, 0)"><g clip-path="url(#d361666c8b)"><g clip-path="url(#01c9102ebd)"><path fill="#ff3131" d="M 22.484375 0.640625 L 22.484375 22.164062 L 0.964844 22.164062 L 0.964844 0.640625 Z M 22.484375 0.640625 " fill-opacity="1" fill-rule="nonzero"/></g></g></g></g></g></g><g fill="#ffffff" fill-opacity="1"><g transform="translate(35.113951, 269.624176)"><g><path d="M 20.734375 0.984375 C 18.617188 0.984375 16.59375 0.710938 14.65625 0.171875 C 12.726562 -0.359375 11.007812 -1.179688 9.5 -2.296875 C 8 -3.421875 6.816406 -4.890625 5.953125 -6.703125 C 5.085938 -8.523438 4.65625 -10.695312 4.65625 -13.21875 C 4.65625 -16.007812 5.179688 -18.351562 6.234375 -20.25 C 7.296875 -22.15625 8.738281 -23.722656 10.5625 -24.953125 C 12.394531 -26.179688 14.507812 -27.175781 16.90625 -27.9375 C 19.3125 -28.695312 21.878906 -29.316406 24.609375 -29.796875 L 32.484375 -31.25 C 34.210938 -31.59375 35.445312 -32.148438 36.1875 -32.921875 C 36.9375 -33.703125 37.3125 -34.71875 37.3125 -35.96875 C 37.3125 -38.101562 36.816406 -39.789062 35.828125 -41.03125 C 34.847656 -42.28125 33.578125 -43.171875 32.015625 -43.703125 C 30.460938 -44.242188 28.820312 -44.515625 27.09375 -44.515625 C 25.226562 -44.515625 23.5 -44.210938 21.90625 -43.609375 C 20.320312 -43.003906 19.019531 -42.035156 18 -40.703125 C 16.988281 -39.367188 16.34375 -37.582031 16.0625 -35.34375 L 5.34375 -37.3125 C 6.238281 -42.695312 8.59375 -46.664062 12.40625 -49.21875 C 16.226562 -51.78125 21.367188 -53.0625 27.828125 -53.0625 C 30.421875 -53.0625 32.957031 -52.785156 35.4375 -52.234375 C 37.925781 -51.679688 40.171875 -50.722656 42.171875 -49.359375 C 44.179688 -47.992188 45.78125 -46.117188 46.96875 -43.734375 C 48.164062 -41.347656 48.765625 -38.328125 48.765625 -34.671875 L 48.765625 -14.453125 C 48.765625 -12.003906 49.132812 -10.335938 49.875 -9.453125 C 50.613281 -8.578125 51.882812 -8.140625 53.6875 -8.140625 L 54.515625 -8.140625 L 54.515625 0 L 48.859375 0 C 45.921875 0 43.570312 -0.539062 41.8125 -1.625 C 40.050781 -2.71875 38.878906 -4.472656 38.296875 -6.890625 L 37.71875 -6.890625 C 36.375 -4.992188 34.773438 -3.460938 32.921875 -2.296875 C 31.078125 -1.140625 29.109375 -0.304688 27.015625 0.203125 C 24.929688 0.722656 22.835938 0.984375 20.734375 0.984375 Z M 23.53125 -8.390625 C 26.257812 -8.390625 28.71875 -9.03125 30.90625 -10.3125 C 33.101562 -11.59375 34.847656 -13.394531 36.140625 -15.71875 C 37.441406 -18.050781 38.09375 -20.804688 38.09375 -23.984375 L 24.765625 -21.03125 C 22.035156 -20.519531 19.925781 -19.742188 18.4375 -18.703125 C 16.957031 -17.671875 16.21875 -16.171875 16.21875 -14.203125 C 16.21875 -12.160156 16.925781 -10.679688 18.34375 -9.765625 C 19.757812 -8.847656 21.488281 -8.390625 23.53125 -8.390625 Z M 23.53125 -8.390625 "/></g></g></g><g fill="#ffffff" fill-opacity="1"><g transform="translate(90.395549, 269.624176)"><g><path d="M 41.65625 -52.125 L 54.359375 -52.125 L 32.640625 0 L 22.328125 0 L 0.78125 -52.125 L 13.421875 -52.125 L 27.46875 -13.6875 Z M 41.65625 -52.125 "/></g></g></g><g fill="#ffffff" fill-opacity="1"><g transform="translate(143.190116, 269.624176)"><g><path d="M 14.5625 -62.078125 C 13.21875 -62.078125 11.988281 -62.40625 10.875 -63.0625 C 9.769531 -63.71875 8.878906 -64.609375 8.203125 -65.734375 C 7.535156 -66.859375 7.203125 -68.078125 7.203125 -69.390625 C 7.203125 -70.734375 7.535156 -71.957031 8.203125 -73.0625 C 8.878906 -74.164062 9.769531 -75.046875 10.875 -75.703125 C 11.988281 -76.359375 13.21875 -76.6875 14.5625 -76.6875 C 15.875 -76.6875 17.082031 -76.359375 18.1875 -75.703125 C 19.289062 -75.046875 20.179688 -74.164062 20.859375 -73.0625 C 21.535156 -71.957031 21.875 -70.734375 21.875 -69.390625 C 21.875 -68.078125 21.535156 -66.859375 20.859375 -65.734375 C 20.179688 -64.609375 19.289062 -63.71875 18.1875 -63.0625 C 17.082031 -62.40625 15.875 -62.078125 14.5625 -62.078125 Z M 8.453125 0 L 8.453125 -52.125 L 20.421875 -52.125 L 20.421875 0 Z M 8.453125 0 "/></g></g></g><g fill="#ffffff" fill-opacity="1"><g transform="translate(169.715436, 269.624176)"><g><path d="M 36.171875 -53.109375 C 40.078125 -53.109375 43.425781 -52.410156 46.21875 -51.015625 C 49.019531 -49.617188 51.171875 -47.582031 52.671875 -44.90625 C 54.171875 -42.226562 54.921875 -38.953125 54.921875 -35.078125 L 54.921875 0 L 42.90625 0 L 42.90625 -32.484375 C 42.90625 -35.109375 42.429688 -37.21875 41.484375 -38.8125 C 40.535156 -40.40625 39.28125 -41.5625 37.71875 -42.28125 C 36.164062 -43.007812 34.472656 -43.375 32.640625 -43.375 C 30.460938 -43.375 28.441406 -42.921875 26.578125 -42.015625 C 24.710938 -41.117188 23.21875 -39.695312 22.09375 -37.75 C 20.976562 -35.800781 20.398438 -33.203125 20.359375 -29.953125 L 20.359375 0 L 8.453125 0 L 8.453125 -52.125 L 20.359375 -52.125 L 20.359375 -45.96875 C 22.085938 -48.207031 24.304688 -49.957031 27.015625 -51.21875 C 29.734375 -52.476562 32.785156 -53.109375 36.171875 -53.109375 Z M 36.171875 -53.109375 "/></g></g></g><g fill="#ffffff" fill-opacity="1"><g transform="translate(229.712022, 269.624176)"><g><path d="M 41.5625 -52.125 L 53.9375 -52.125 L 22.171875 26.109375 L 10 26.109375 L 21.765625 -1.703125 L 0.875 -52.125 L 13.984375 -52.125 L 27.515625 -14.8125 Z M 41.5625 -52.125 "/></g></g></g><g fill="#ffffff" fill-opacity="1"><g transform="translate(282.247541, 269.624176)"><g><path d="M 20.734375 0.984375 C 18.617188 0.984375 16.59375 0.710938 14.65625 0.171875 C 12.726562 -0.359375 11.007812 -1.179688 9.5 -2.296875 C 8 -3.421875 6.816406 -4.890625 5.953125 -6.703125 C 5.085938 -8.523438 4.65625 -10.695312 4.65625 -13.21875 C 4.65625 -16.007812 5.179688 -18.351562 6.234375 -20.25 C 7.296875 -22.15625 8.738281 -23.722656 10.5625 -24.953125 C 12.394531 -26.179688 14.507812 -27.175781 16.90625 -27.9375 C 19.3125 -28.695312 21.878906 -29.316406 24.609375 -29.796875 L 32.484375 -31.25 C 34.210938 -31.59375 35.445312 -32.148438 36.1875 -32.921875 C 36.9375 -33.703125 37.3125 -34.71875 37.3125 -35.96875 C 37.3125 -38.101562 36.816406 -39.789062 35.828125 -41.03125 C 34.847656 -42.28125 33.578125 -43.171875 32.015625 -43.703125 C 30.460938 -44.242188 28.820312 -44.515625 27.09375 -44.515625 C 25.226562 -44.515625 23.5 -44.210938 21.90625 -43.609375 C 20.320312 -43.003906 19.019531 -42.035156 18 -40.703125 C 16.988281 -39.367188 16.34375 -37.582031 16.0625 -35.34375 L 5.34375 -37.3125 C 6.238281 -42.695312 8.59375 -46.664062 12.40625 -49.21875 C 16.226562 -51.78125 21.367188 -53.0625 27.828125 -53.0625 C 30.421875 -53.0625 32.957031 -52.785156 35.4375 -52.234375 C 37.925781 -51.679688 40.171875 -50.722656 42.171875 -49.359375 C 44.179688 -47.992188 45.78125 -46.117188 46.96875 -43.734375 C 48.164062 -41.347656 48.765625 -38.328125 48.765625 -34.671875 L 48.765625 -14.453125 C 48.765625 -12.003906 49.132812 -10.335938 49.875 -9.453125 C 50.613281 -8.578125 51.882812 -8.140625 53.6875 -8.140625 L 54.515625 -8.140625 L 54.515625 0 L 48.859375 0 C 45.921875 0 43.570312 -0.539062 41.8125 -1.625 C 40.050781 -2.71875 38.878906 -4.472656 38.296875 -6.890625 L 37.71875 -6.890625 C 36.375 -4.992188 34.773438 -3.460938 32.921875 -2.296875 C 31.078125 -1.140625 29.109375 -0.304688 27.015625 0.203125 C 24.929688 0.722656 22.835938 0.984375 20.734375 0.984375 Z M 23.53125 -8.390625 C 26.257812 -8.390625 28.71875 -9.03125 30.90625 -10.3125 C 33.101562 -11.59375 34.847656 -13.394531 36.140625 -15.71875 C 37.441406 -18.050781 38.09375 -20.804688 38.09375 -23.984375 L 24.765625 -21.03125 C 22.035156 -20.519531 19.925781 -19.742188 18.4375 -18.703125 C 16.957031 -17.671875 16.21875 -16.171875 16.21875 -14.203125 C 16.21875 -12.160156 16.925781 -10.679688 18.34375 -9.765625 C 19.757812 -8.847656 21.488281 -8.390625 23.53125 -8.390625 Z M 23.53125 -8.390625 "/></g></g></g></svg>