<svg xmlns="http://www.w3.org/2000/svg" xmlns:xlink="http://www.w3.org/1999/xlink" width="500" zoomAndPan="magnify" viewBox="0 0 375 374.999991" height="500" preserveAspectRatio="xMidYMid meet" version="1.0"><defs><g/><clipPath id="d94504bd29"><path d="M 1.144531 62.957031 L 135.707031 62.957031 L 135.707031 197.519531 L 1.144531 197.519531 Z M 1.144531 62.957031 " clip-rule="nonzero"/></clipPath><clipPath id="f4b0698e95"><path d="M 129.144531 62.957031 L 191.855469 62.957031 L 191.855469 198.191406 L 129.144531 198.191406 Z M 129.144531 62.957031 " clip-rule="nonzero"/></clipPath><clipPath id="f83c638bb4"><path d="M 0.144531 0.957031 L 62.855469 0.957031 L 62.855469 136.191406 L 0.144531 136.191406 Z M 0.144531 0.957031 " clip-rule="nonzero"/></clipPath><clipPath id="074ee95e45"><rect x="0" width="63" y="0" height="137"/></clipPath><clipPath id="1a9be8d581"><path d="M 1.128906 0.25 L 129.128906 0.25 L 129.128906 62.960938 L 1.128906 62.960938 Z M 1.128906 0.25 " clip-rule="nonzero"/></clipPath><clipPath id="1e4f1a76e0"><path d="M 0.128906 0.25 L 128.128906 0.25 L 128.128906 62.960938 L 0.128906 62.960938 Z M 0.128906 0.25 " clip-rule="nonzero"/></clipPath><clipPath id="69e9f979f6"><rect x="0" width="129" y="0" height="63"/></clipPath><clipPath id="04bb65d135"><path d="M 149.785156 0.246094 L 191.84375 0.246094 L 191.84375 42.308594 L 149.785156 42.308594 Z M 149.785156 0.246094 " clip-rule="nonzero"/></clipPath><clipPath id="0477eb5a25"><path d="M 0.785156 0.246094 L 42.84375 0.246094 L 42.84375 42.308594 L 0.785156 42.308594 Z M 0.785156 0.246094 " clip-rule="nonzero"/></clipPath><clipPath id="f8b7835838"><rect x="0" width="43" y="0" height="43"/></clipPath><clipPath id="c45f57c3ca"><rect x="0" width="192" y="0" height="199"/></clipPath></defs><g transform="matrix(1, 0, 0, 1, 91, 30)"><g clip-path="url(#c45f57c3ca)"><g clip-path="url(#d94504bd29)"><path fill="#ffffff" d="M 136.378906 123.175781 L 136.378906 62.957031 C 61.691406 62.957031 1.144531 123.503906 1.144531 198.191406 L 61.363281 198.191406 C 61.363281 156.761719 94.949219 123.175781 136.378906 123.175781 Z M 136.378906 123.175781 " fill-opacity="1" fill-rule="nonzero"/></g><g clip-path="url(#f4b0698e95)"><g transform="matrix(1, 0, 0, 1, 129, 62)"><g clip-path="url(#074ee95e45)"><g clip-path="url(#f83c638bb4)"><path fill="#ffffff" d="M 0.144531 0.957031 L 62.855469 0.957031 L 62.855469 136.179688 L 0.144531 136.179688 Z M 0.144531 0.957031 " fill-opacity="1" fill-rule="nonzero"/></g></g></g></g><g clip-path="url(#1a9be8d581)"><g transform="matrix(1, 0, 0, 1, 1, 0)"><g clip-path="url(#69e9f979f6)"><g clip-path="url(#1e4f1a76e0)"><path fill="#ffffff" d="M 128.128906 0.25 L 128.128906 62.960938 L 0.0117188 62.960938 L 0.0117188 0.25 Z M 128.128906 0.25 " fill-opacity="1" fill-rule="nonzero"/></g></g></g></g><g clip-path="url(#04bb65d135)"><g transform="matrix(1, 0, 0, 1, 149, 0)"><g clip-path="url(#f8b7835838)"><g clip-path="url(#0477eb5a25)"><path fill="#ff3131" d="M 42.84375 0.246094 L 42.84375 42.308594 L 0.785156 42.308594 L 0.785156 0.246094 Z M 42.84375 0.246094 " fill-opacity="1" fill-rule="nonzero"/></g></g></g></g></g></g><g fill="#ffffff" fill-opacity="1"><g transform="translate(-0.855691, 323.279451)"><g><path d="M 2.71875 0 L 28.40625 -71.671875 L 43.671875 -71.671875 L 69.28125 0 L 54.859375 0 L 49.015625 -16.609375 L 23.25 -16.609375 L 17.25 0 Z M 26.46875 -29.234375 L 45.546875 -29.234375 L 36.078125 -57.6875 Z M 26.46875 -29.234375 "/></g></g></g><g fill="#ffffff" fill-opacity="1"><g transform="translate(68.972375, 323.279451)"><g><path d="M 67.546875 -71.671875 L 42.828125 0 L 26.421875 0 L 1.890625 -71.671875 L 15.71875 -71.671875 L 34.640625 -16.796875 L 53.71875 -71.671875 Z M 67.546875 -71.671875 "/></g></g></g><g fill="#ffffff" fill-opacity="1"><g transform="translate(136.223393, 323.279451)"><g><path d="M 8.03125 -71.671875 L 22.453125 -71.671875 L 22.453125 0 L 8.03125 0 Z M 8.03125 -71.671875 "/></g></g></g><g fill="#ffffff" fill-opacity="1"><g transform="translate(164.521324, 323.279451)"><g><path d="M 55.0625 -71.671875 L 69.53125 -71.671875 L 69.53125 0 L 56.5 0 L 22.453125 -49.3125 L 22.453125 0 L 8.03125 0 L 8.03125 -71.671875 L 22.359375 -71.671875 L 55.0625 -24.234375 Z M 55.0625 -71.671875 "/></g></g></g><g fill="#ffffff" fill-opacity="1"><g transform="translate(239.850393, 323.279451)"><g><path d="M 65.21875 -71.671875 L 40.296875 -30.140625 L 40.296875 0 L 25.828125 0 L 25.828125 -30.1875 L 0.9375 -71.671875 L 16.609375 -71.671875 L 33.109375 -42.625 L 49.40625 -71.671875 Z M 65.21875 -71.671875 "/></g></g></g><g fill="#ffffff" fill-opacity="1"><g transform="translate(303.830553, 323.279451)"><g><path d="M 2.71875 0 L 28.40625 -71.671875 L 43.671875 -71.671875 L 69.28125 0 L 54.859375 0 L 49.015625 -16.609375 L 23.25 -16.609375 L 17.25 0 Z M 26.46875 -29.234375 L 45.546875 -29.234375 L 36.078125 -57.6875 Z M 26.46875 -29.234375 "/></g></g></g></svg>