<svg xmlns="http://www.w3.org/2000/svg" xmlns:xlink="http://www.w3.org/1999/xlink" width="500" zoomAndPan="magnify" viewBox="0 0 375 374.999991" height="500" preserveAspectRatio="xMidYMid meet" version="1.0"><defs><g/><clipPath id="b1143bd893"><path d="M 0.574219 33.183594 L 70 33.183594 L 70 102.921875 L 0.574219 102.921875 Z M 0.574219 33.183594 " clip-rule="nonzero"/></clipPath><clipPath id="29492997b3"><path d="M 66.25 33.183594 L 98.425781 33.183594 L 98.425781 102.570312 L 66.25 102.570312 Z M 66.25 33.183594 " clip-rule="nonzero"/></clipPath><clipPath id="837c640c22"><path d="M 0.25 0.183594 L 32.425781 0.183594 L 32.425781 69.570312 L 0.25 69.570312 Z M 0.25 0.183594 " clip-rule="nonzero"/></clipPath><clipPath id="1c248ef0c2"><rect x="0" width="33" y="0" height="70"/></clipPath><clipPath id="1cdced4432"><path d="M 0.574219 1.007812 L 66.246094 1.007812 L 66.246094 33.1875 L 0.574219 33.1875 Z M 0.574219 1.007812 " clip-rule="nonzero"/></clipPath><clipPath id="ad789cebf6"><path d="M 0.574219 0.0078125 L 66.246094 0.0078125 L 66.246094 32.1875 L 0.574219 32.1875 Z M 0.574219 0.0078125 " clip-rule="nonzero"/></clipPath><clipPath id="dce5b47d21"><rect x="0" width="67" y="0" height="33"/></clipPath><clipPath id="0a75c74e52"><path d="M 76.835938 1.007812 L 98.414062 1.007812 L 98.414062 22.589844 L 76.835938 22.589844 Z M 76.835938 1.007812 " clip-rule="nonzero"/></clipPath><clipPath id="6231147936"><path d="M 0.835938 0.0078125 L 22.414062 0.0078125 L 22.414062 21.589844 L 0.835938 21.589844 Z M 0.835938 0.0078125 " clip-rule="nonzero"/></clipPath><clipPath id="5a3c6920d8"><rect x="0" width="23" y="0" height="22"/></clipPath><clipPath id="0ee80f0548"><rect x="0" width="99" y="0" height="103"/></clipPath></defs><g transform="matrix(1, 0, 0, 1, 138, 73)"><g clip-path="url(#0ee80f0548)"><g clip-path="url(#b1143bd893)"><path fill="#001639" d="M 69.945312 64.074219 L 69.945312 33.183594 C 31.632812 33.183594 0.574219 64.242188 0.574219 102.558594 L 31.464844 102.558594 C 31.464844 81.304688 48.695312 64.074219 69.945312 64.074219 Z M 69.945312 64.074219 " fill-opacity="1" fill-rule="nonzero"/></g><g clip-path="url(#29492997b3)"><g transform="matrix(1, 0, 0, 1, 66, 33)"><g clip-path="url(#1c248ef0c2)"><g clip-path="url(#837c640c22)"><path fill="#001639" d="M 0.25 0.183594 L 32.425781 0.183594 L 32.425781 69.566406 L 0.25 69.566406 Z M 0.25 0.183594 " fill-opacity="1" fill-rule="nonzero"/></g></g></g></g><g clip-path="url(#1cdced4432)"><g transform="matrix(1, 0, 0, 1, 0.000000000000028422, 1)"><g clip-path="url(#dce5b47d21)"><g clip-path="url(#ad789cebf6)"><path fill="#001639" d="M 66.246094 0.0078125 L 66.246094 32.1875 L 0.511719 32.1875 L 0.511719 0.0078125 Z M 66.246094 0.0078125 " fill-opacity="1" fill-rule="nonzero"/></g></g></g></g><g clip-path="url(#0a75c74e52)"><g transform="matrix(1, 0, 0, 1, 76, 1)"><g clip-path="url(#5a3c6920d8)"><g clip-path="url(#6231147936)"><path fill="#ff3131" d="M 22.414062 0.0078125 L 22.414062 21.589844 L 0.835938 21.589844 L 0.835938 0.0078125 Z M 22.414062 0.0078125 " fill-opacity="1" fill-rule="nonzero"/></g></g></g></g></g></g><g fill="#001639" fill-opacity="1"><g transform="translate(35.291036, 269.635998)"><g><path d="M 20.703125 0.984375 C 18.597656 0.984375 16.578125 0.710938 14.640625 0.171875 C 12.710938 -0.359375 11 -1.179688 9.5 -2.296875 C 8 -3.421875 6.816406 -4.890625 5.953125 -6.703125 C 5.085938 -8.515625 4.65625 -10.679688 4.65625 -13.203125 C 4.65625 -15.992188 5.179688 -18.335938 6.234375 -20.234375 C 7.285156 -22.128906 8.722656 -23.691406 10.546875 -24.921875 C 12.378906 -26.148438 14.492188 -27.140625 16.890625 -27.890625 C 19.296875 -28.648438 21.859375 -29.273438 24.578125 -29.765625 L 32.453125 -31.203125 C 34.179688 -31.554688 35.414062 -32.117188 36.15625 -32.890625 C 36.894531 -33.671875 37.265625 -34.679688 37.265625 -35.921875 C 37.265625 -38.054688 36.769531 -39.742188 35.78125 -40.984375 C 34.800781 -42.234375 33.535156 -43.125 31.984375 -43.65625 C 30.429688 -44.1875 28.789062 -44.453125 27.0625 -44.453125 C 25.207031 -44.453125 23.484375 -44.148438 21.890625 -43.546875 C 20.304688 -42.953125 19.003906 -41.988281 17.984375 -40.65625 C 16.960938 -39.320312 16.316406 -37.535156 16.046875 -35.296875 L 5.328125 -37.265625 C 6.222656 -42.648438 8.578125 -46.617188 12.390625 -49.171875 C 16.203125 -51.722656 21.335938 -53 27.796875 -53 C 30.378906 -53 32.910156 -52.722656 35.390625 -52.171875 C 37.878906 -51.617188 40.125 -50.660156 42.125 -49.296875 C 44.132812 -47.929688 45.734375 -46.054688 46.921875 -43.671875 C 48.109375 -41.296875 48.703125 -38.28125 48.703125 -34.625 L 48.703125 -14.4375 C 48.703125 -11.988281 49.070312 -10.320312 49.8125 -9.4375 C 50.5625 -8.5625 51.832031 -8.125 53.625 -8.125 L 54.453125 -8.125 L 54.453125 0 L 48.8125 0 C 45.875 0 43.523438 -0.539062 41.765625 -1.625 C 40.003906 -2.71875 38.832031 -4.472656 38.25 -6.890625 L 37.6875 -6.890625 C 36.332031 -4.984375 34.734375 -3.453125 32.890625 -2.296875 C 31.046875 -1.140625 29.078125 -0.304688 26.984375 0.203125 C 24.898438 0.722656 22.804688 0.984375 20.703125 0.984375 Z M 23.5 -8.390625 C 26.226562 -8.390625 28.6875 -9.023438 30.875 -10.296875 C 33.0625 -11.578125 34.800781 -13.378906 36.09375 -15.703125 C 37.394531 -18.035156 38.046875 -20.789062 38.046875 -23.96875 L 24.734375 -21.015625 C 22.015625 -20.492188 19.910156 -19.710938 18.421875 -18.671875 C 16.941406 -17.640625 16.203125 -16.144531 16.203125 -14.1875 C 16.203125 -12.144531 16.90625 -10.664062 18.3125 -9.75 C 19.726562 -8.84375 21.457031 -8.390625 23.5 -8.390625 Z M 23.5 -8.390625 "/></g></g></g><g fill="#001639" fill-opacity="1"><g transform="translate(90.511613, 269.635998)"><g><path d="M 41.609375 -52.0625 L 54.296875 -52.0625 L 32.609375 0 L 22.3125 0 L 0.78125 -52.0625 L 13.40625 -52.0625 L 27.4375 -13.671875 Z M 41.609375 -52.0625 "/></g></g></g><g fill="#001639" fill-opacity="1"><g transform="translate(143.247907, 269.635998)"><g><path d="M 14.546875 -62 C 13.203125 -62 11.976562 -62.328125 10.875 -62.984375 C 9.769531 -63.640625 8.878906 -64.53125 8.203125 -65.65625 C 7.523438 -66.78125 7.1875 -67.992188 7.1875 -69.296875 C 7.1875 -70.648438 7.523438 -71.878906 8.203125 -72.984375 C 8.878906 -74.085938 9.769531 -74.96875 10.875 -75.625 C 11.976562 -76.28125 13.203125 -76.609375 14.546875 -76.609375 C 15.859375 -76.609375 17.066406 -76.28125 18.171875 -75.625 C 19.273438 -74.96875 20.160156 -74.085938 20.828125 -72.984375 C 21.503906 -71.878906 21.84375 -70.648438 21.84375 -69.296875 C 21.84375 -67.992188 21.503906 -66.78125 20.828125 -65.65625 C 20.160156 -64.53125 19.273438 -63.640625 18.171875 -62.984375 C 17.066406 -62.328125 15.859375 -62 14.546875 -62 Z M 8.4375 0 L 8.4375 -52.0625 L 20.390625 -52.0625 L 20.390625 0 Z M 8.4375 0 "/></g></g></g><g fill="#001639" fill-opacity="1"><g transform="translate(169.743965, 269.635998)"><g><path d="M 36.125 -53.046875 C 40.019531 -53.046875 43.363281 -52.347656 46.15625 -50.953125 C 48.957031 -49.554688 51.109375 -47.519531 52.609375 -44.84375 C 54.109375 -42.175781 54.859375 -38.910156 54.859375 -35.046875 L 54.859375 0 L 42.859375 0 L 42.859375 -32.453125 C 42.859375 -35.078125 42.382812 -37.179688 41.4375 -38.765625 C 40.488281 -40.347656 39.234375 -41.503906 37.671875 -42.234375 C 36.117188 -42.960938 34.429688 -43.328125 32.609375 -43.328125 C 30.429688 -43.328125 28.410156 -42.875 26.546875 -41.96875 C 24.679688 -41.070312 23.1875 -39.648438 22.0625 -37.703125 C 20.945312 -35.753906 20.375 -33.160156 20.34375 -29.921875 L 20.34375 0 L 8.4375 0 L 8.4375 -52.0625 L 20.34375 -52.0625 L 20.34375 -45.90625 C 22.0625 -48.15625 24.273438 -49.90625 26.984375 -51.15625 C 29.703125 -52.414062 32.75 -53.046875 36.125 -53.046875 Z M 36.125 -53.046875 "/></g></g></g><g fill="#001639" fill-opacity="1"><g transform="translate(229.674323, 269.635998)"><g><path d="M 41.515625 -52.0625 L 53.875 -52.0625 L 22.15625 26.09375 L 9.984375 26.09375 L 21.734375 -1.703125 L 0.875 -52.0625 L 13.96875 -52.0625 L 27.484375 -14.796875 Z M 41.515625 -52.0625 "/></g></g></g><g fill="#001639" fill-opacity="1"><g transform="translate(282.151844, 269.635998)"><g><path d="M 20.703125 0.984375 C 18.597656 0.984375 16.578125 0.710938 14.640625 0.171875 C 12.710938 -0.359375 11 -1.179688 9.5 -2.296875 C 8 -3.421875 6.816406 -4.890625 5.953125 -6.703125 C 5.085938 -8.515625 4.65625 -10.679688 4.65625 -13.203125 C 4.65625 -15.992188 5.179688 -18.335938 6.234375 -20.234375 C 7.285156 -22.128906 8.722656 -23.691406 10.546875 -24.921875 C 12.378906 -26.148438 14.492188 -27.140625 16.890625 -27.890625 C 19.296875 -28.648438 21.859375 -29.273438 24.578125 -29.765625 L 32.453125 -31.203125 C 34.179688 -31.554688 35.414062 -32.117188 36.15625 -32.890625 C 36.894531 -33.671875 37.265625 -34.679688 37.265625 -35.921875 C 37.265625 -38.054688 36.769531 -39.742188 35.78125 -40.984375 C 34.800781 -42.234375 33.535156 -43.125 31.984375 -43.65625 C 30.429688 -44.1875 28.789062 -44.453125 27.0625 -44.453125 C 25.207031 -44.453125 23.484375 -44.148438 21.890625 -43.546875 C 20.304688 -42.953125 19.003906 -41.988281 17.984375 -40.65625 C 16.960938 -39.320312 16.316406 -37.535156 16.046875 -35.296875 L 5.328125 -37.265625 C 6.222656 -42.648438 8.578125 -46.617188 12.390625 -49.171875 C 16.203125 -51.722656 21.335938 -53 27.796875 -53 C 30.378906 -53 32.910156 -52.722656 35.390625 -52.171875 C 37.878906 -51.617188 40.125 -50.660156 42.125 -49.296875 C 44.132812 -47.929688 45.734375 -46.054688 46.921875 -43.671875 C 48.109375 -41.296875 48.703125 -38.28125 48.703125 -34.625 L 48.703125 -14.4375 C 48.703125 -11.988281 49.070312 -10.320312 49.8125 -9.4375 C 50.5625 -8.5625 51.832031 -8.125 53.625 -8.125 L 54.453125 -8.125 L 54.453125 0 L 48.8125 0 C 45.875 0 43.523438 -0.539062 41.765625 -1.625 C 40.003906 -2.71875 38.832031 -4.472656 38.25 -6.890625 L 37.6875 -6.890625 C 36.332031 -4.984375 34.734375 -3.453125 32.890625 -2.296875 C 31.046875 -1.140625 29.078125 -0.304688 26.984375 0.203125 C 24.898438 0.722656 22.804688 0.984375 20.703125 0.984375 Z M 23.5 -8.390625 C 26.226562 -8.390625 28.6875 -9.023438 30.875 -10.296875 C 33.0625 -11.578125 34.800781 -13.378906 36.09375 -15.703125 C 37.394531 -18.035156 38.046875 -20.789062 38.046875 -23.96875 L 24.734375 -21.015625 C 22.015625 -20.492188 19.910156 -19.710938 18.421875 -18.671875 C 16.941406 -17.640625 16.203125 -16.144531 16.203125 -14.1875 C 16.203125 -12.144531 16.90625 -10.664062 18.3125 -9.75 C 19.726562 -8.84375 21.457031 -8.390625 23.5 -8.390625 Z M 23.5 -8.390625 "/></g></g></g></svg>