<svg xmlns="http://www.w3.org/2000/svg" xmlns:xlink="http://www.w3.org/1999/xlink" width="500" zoomAndPan="magnify" viewBox="0 0 375 374.999991" height="500" preserveAspectRatio="xMidYMid meet" version="1.0"><defs><clipPath id="2ac93b3c9f"><path d="M 1.035156 72.253906 L 155 72.253906 L 155 226.480469 L 1.035156 226.480469 Z M 1.035156 72.253906 " clip-rule="nonzero"/></clipPath><clipPath id="8253bc711b"><path d="M 146.632812 72.253906 L 217.964844 72.253906 L 217.964844 226.078125 L 146.632812 226.078125 Z M 146.632812 72.253906 " clip-rule="nonzero"/></clipPath><clipPath id="1f51b496dc"><path d="M 0.632812 0.253906 L 71.964844 0.253906 L 71.964844 154.078125 L 0.632812 154.078125 Z M 0.632812 0.253906 " clip-rule="nonzero"/></clipPath><clipPath id="5a3da092b9"><rect x="0" width="72" y="0" height="155"/></clipPath><clipPath id="553cb3885f"><path d="M 1.03125 0.921875 L 146.628906 0.921875 L 146.628906 72.257812 L 1.03125 72.257812 Z M 1.03125 0.921875 " clip-rule="nonzero"/></clipPath><clipPath id="6dd8972a9c"><path d="M 0.03125 0.921875 L 145.628906 0.921875 L 145.628906 72.257812 L 0.03125 72.257812 Z M 0.03125 0.921875 " clip-rule="nonzero"/></clipPath><clipPath id="4d967ad068"><rect x="0" width="146" y="0" height="73"/></clipPath><clipPath id="df79a8b39b"><path d="M 170.097656 0.921875 L 217.941406 0.921875 L 217.941406 48.765625 L 170.097656 48.765625 Z M 170.097656 0.921875 " clip-rule="nonzero"/></clipPath><clipPath id="0ad571bae3"><path d="M 0.0976562 0.921875 L 47.941406 0.921875 L 47.941406 48.765625 L 0.0976562 48.765625 Z M 0.0976562 0.921875 " clip-rule="nonzero"/></clipPath><clipPath id="dbccf0edbd"><rect x="0" width="48" y="0" height="49"/></clipPath><clipPath id="6a5d593caf"><rect x="0" width="219" y="0" height="227"/></clipPath></defs><g transform="matrix(1, 0, 0, 1, 78, 74)"><g clip-path="url(#6a5d593caf)"><g clip-path="url(#2ac93b3c9f)"><path fill="#ffffff" d="M 154.828125 140.738281 L 154.828125 72.253906 C 69.890625 72.253906 1.035156 141.109375 1.035156 226.046875 L 69.519531 226.046875 C 69.519531 178.933594 107.714844 140.738281 154.828125 140.738281 Z M 154.828125 140.738281 " fill-opacity="1" fill-rule="nonzero"/></g><g clip-path="url(#8253bc711b)"><g transform="matrix(1, 0, 0, 1, 146, 72)"><g clip-path="url(#5a3da092b9)"><g clip-path="url(#1f51b496dc)"><path fill="#ffffff" d="M 0.632812 0.253906 L 71.964844 0.253906 L 71.964844 154.066406 L 0.632812 154.066406 Z M 0.632812 0.253906 " fill-opacity="1" fill-rule="nonzero"/></g></g></g></g><g clip-path="url(#553cb3885f)"><g transform="matrix(1, 0, 0, 1, 1, 0)"><g clip-path="url(#4d967ad068)"><g clip-path="url(#6dd8972a9c)"><path fill="#ffffff" d="M 145.628906 0.921875 L 145.628906 72.257812 L -0.101562 72.257812 L -0.101562 0.921875 Z M 145.628906 0.921875 " fill-opacity="1" fill-rule="nonzero"/></g></g></g></g><g clip-path="url(#df79a8b39b)"><g transform="matrix(1, 0, 0, 1, 170, 0)"><g clip-path="url(#dbccf0edbd)"><g clip-path="url(#0ad571bae3)"><path fill="#ff3131" d="M 47.941406 0.921875 L 47.941406 48.765625 L 0.0976562 48.765625 L 0.0976562 0.921875 Z M 47.941406 0.921875 " fill-opacity="1" fill-rule="nonzero"/></g></g></g></g></g></g></svg>