<svg xmlns="http://www.w3.org/2000/svg" xmlns:xlink="http://www.w3.org/1999/xlink" width="500" zoomAndPan="magnify" viewBox="0 0 375 374.999991" height="500" preserveAspectRatio="xMidYMid meet" version="1.0"><defs><clipPath id="9052b1f320"><path d="M 1.035156 72.253906 L 155 72.253906 L 155 226.480469 L 1.035156 226.480469 Z M 1.035156 72.253906 " clip-rule="nonzero"/></clipPath><clipPath id="67404fc7ee"><path d="M 146.632812 72.253906 L 217.964844 72.253906 L 217.964844 226.078125 L 146.632812 226.078125 Z M 146.632812 72.253906 " clip-rule="nonzero"/></clipPath><clipPath id="9415049ced"><path d="M 0.632812 0.253906 L 71.964844 0.253906 L 71.964844 154.078125 L 0.632812 154.078125 Z M 0.632812 0.253906 " clip-rule="nonzero"/></clipPath><clipPath id="dd3441b5a4"><rect x="0" width="72" y="0" height="155"/></clipPath><clipPath id="0371e7accb"><path d="M 1.03125 0.921875 L 146.628906 0.921875 L 146.628906 72.257812 L 1.03125 72.257812 Z M 1.03125 0.921875 " clip-rule="nonzero"/></clipPath><clipPath id="23cb034a03"><path d="M 0.03125 0.921875 L 145.628906 0.921875 L 145.628906 72.257812 L 0.03125 72.257812 Z M 0.03125 0.921875 " clip-rule="nonzero"/></clipPath><clipPath id="6192f134bf"><rect x="0" width="146" y="0" height="73"/></clipPath><clipPath id="c0ac099c71"><path d="M 170.097656 0.921875 L 217.941406 0.921875 L 217.941406 48.765625 L 170.097656 48.765625 Z M 170.097656 0.921875 " clip-rule="nonzero"/></clipPath><clipPath id="761a18e849"><path d="M 0.0976562 0.921875 L 47.941406 0.921875 L 47.941406 48.765625 L 0.0976562 48.765625 Z M 0.0976562 0.921875 " clip-rule="nonzero"/></clipPath><clipPath id="14f6d05cec"><rect x="0" width="48" y="0" height="49"/></clipPath><clipPath id="742fc9cff7"><rect x="0" width="219" y="0" height="227"/></clipPath></defs><g transform="matrix(1, 0, 0, 1, 78, 74)"><g clip-path="url(#742fc9cff7)"><g clip-path="url(#9052b1f320)"><path fill="#ffffff" d="M 154.828125 140.738281 L 154.828125 72.253906 C 69.890625 72.253906 1.035156 141.109375 1.035156 226.046875 L 69.519531 226.046875 C 69.519531 178.933594 107.714844 140.738281 154.828125 140.738281 Z M 154.828125 140.738281 " fill-opacity="1" fill-rule="nonzero"/></g><g clip-path="url(#67404fc7ee)"><g transform="matrix(1, 0, 0, 1, 146, 72)"><g clip-path="url(#dd3441b5a4)"><g clip-path="url(#9415049ced)"><path fill="#ffffff" d="M 0.632812 0.253906 L 71.964844 0.253906 L 71.964844 154.066406 L 0.632812 154.066406 Z M 0.632812 0.253906 " fill-opacity="1" fill-rule="nonzero"/></g></g></g></g><g clip-path="url(#0371e7accb)"><g transform="matrix(1, 0, 0, 1, 1, 0)"><g clip-path="url(#6192f134bf)"><g clip-path="url(#23cb034a03)"><path fill="#ffffff" d="M 145.628906 0.921875 L 145.628906 72.257812 L -0.101562 72.257812 L -0.101562 0.921875 Z M 145.628906 0.921875 " fill-opacity="1" fill-rule="nonzero"/></g></g></g></g><g clip-path="url(#c0ac099c71)"><g transform="matrix(1, 0, 0, 1, 170, 0)"><g clip-path="url(#14f6d05cec)"><g clip-path="url(#761a18e849)"><path fill="#ff3131" d="M 47.941406 0.921875 L 47.941406 48.765625 L 0.0976562 48.765625 L 0.0976562 0.921875 Z M 47.941406 0.921875 " fill-opacity="1" fill-rule="nonzero"/></g></g></g></g></g></g></svg>