<svg xmlns="http://www.w3.org/2000/svg" xmlns:xlink="http://www.w3.org/1999/xlink" width="500" zoomAndPan="magnify" viewBox="0 0 375 374.999991" height="500" preserveAspectRatio="xMidYMid meet" version="1.0"><defs><clipPath id="cc287977b1"><path d="M 79.035156 146.253906 L 232.785156 146.253906 L 232.785156 300.003906 L 79.035156 300.003906 Z M 79.035156 146.253906 " clip-rule="nonzero"/></clipPath><clipPath id="8536b7fc91"><path d="M 224.632812 146.253906 L 295.964844 146.253906 L 295.964844 300.078125 L 224.632812 300.078125 Z M 224.632812 146.253906 " clip-rule="nonzero"/></clipPath><clipPath id="eaf6053fe8"><path d="M 0.632812 0.253906 L 71.964844 0.253906 L 71.964844 154.078125 L 0.632812 154.078125 Z M 0.632812 0.253906 " clip-rule="nonzero"/></clipPath><clipPath id="f2f8930617"><rect x="0" width="72" y="0" height="155"/></clipPath><clipPath id="329f851c40"><path d="M 79.03125 74.917969 L 224.628906 74.917969 L 224.628906 146.253906 L 79.03125 146.253906 Z M 79.03125 74.917969 " clip-rule="nonzero"/></clipPath><clipPath id="489333d7a5"><path d="M 0.03125 0.917969 L 145.628906 0.917969 L 145.628906 72.253906 L 0.03125 72.253906 Z M 0.03125 0.917969 " clip-rule="nonzero"/></clipPath><clipPath id="2072d2b84d"><rect x="0" width="146" y="0" height="73"/></clipPath><clipPath id="63cd9b9b07"><path d="M 248.113281 74.921875 L 295.957031 74.921875 L 295.957031 122.765625 L 248.113281 122.765625 Z M 248.113281 74.921875 " clip-rule="nonzero"/></clipPath><clipPath id="4a3a195cff"><path d="M 0.113281 0.921875 L 47.957031 0.921875 L 47.957031 48.765625 L 0.113281 48.765625 Z M 0.113281 0.921875 " clip-rule="nonzero"/></clipPath><clipPath id="c73c66917a"><rect x="0" width="48" y="0" height="49"/></clipPath></defs><g clip-path="url(#cc287977b1)"><path fill="#050b18" d="M 232.855469 214.75 L 232.855469 146.253906 C 147.902344 146.253906 79.035156 215.121094 79.035156 300.074219 L 147.53125 300.074219 C 147.53125 252.949219 185.730469 214.75 232.855469 214.75 Z M 232.855469 214.75 " fill-opacity="1" fill-rule="nonzero"/></g><g clip-path="url(#8536b7fc91)"><g transform="matrix(1, 0, 0, 1, 224, 146)"><g clip-path="url(#f2f8930617)"><g clip-path="url(#eaf6053fe8)"><path fill="#050b18" d="M 0.632812 0.253906 L 71.964844 0.253906 L 71.964844 154.066406 L 0.632812 154.066406 Z M 0.632812 0.253906 " fill-opacity="1" fill-rule="nonzero"/></g></g></g></g><g clip-path="url(#329f851c40)"><g transform="matrix(1, 0, 0, 1, 79, 74)"><g clip-path="url(#2072d2b84d)"><g clip-path="url(#489333d7a5)"><path fill="#050b18" d="M 145.628906 0.917969 L 145.628906 72.253906 L -0.101562 72.253906 L -0.101562 0.917969 Z M 145.628906 0.917969 " fill-opacity="1" fill-rule="nonzero"/></g></g></g></g><g clip-path="url(#63cd9b9b07)"><g transform="matrix(1, 0, 0, 1, 248, 74)"><g clip-path="url(#c73c66917a)"><g clip-path="url(#4a3a195cff)"><path fill="#ff3131" d="M 47.957031 0.921875 L 47.957031 48.765625 L 0.113281 48.765625 L 0.113281 0.921875 Z M 47.957031 0.921875 " fill-opacity="1" fill-rule="nonzero"/></g></g></g></g></svg>