<svg xmlns="http://www.w3.org/2000/svg" xmlns:xlink="http://www.w3.org/1999/xlink" width="500" zoomAndPan="magnify" viewBox="0 0 375 374.999991" height="500" preserveAspectRatio="xMidYMid meet" version="1.0"><defs><clipPath id="f9395147c8"><path d="M 79.035156 146.253906 L 232.785156 146.253906 L 232.785156 300.003906 L 79.035156 300.003906 Z M 79.035156 146.253906 " clip-rule="nonzero"/></clipPath><clipPath id="3bc6286556"><path d="M 224.632812 146.253906 L 295.964844 146.253906 L 295.964844 300.078125 L 224.632812 300.078125 Z M 224.632812 146.253906 " clip-rule="nonzero"/></clipPath><clipPath id="e3d214991b"><path d="M 0.632812 0.253906 L 71.964844 0.253906 L 71.964844 154.078125 L 0.632812 154.078125 Z M 0.632812 0.253906 " clip-rule="nonzero"/></clipPath><clipPath id="6c30f02cf0"><rect x="0" width="72" y="0" height="155"/></clipPath><clipPath id="24b0448cdc"><path d="M 79.03125 74.917969 L 224.628906 74.917969 L 224.628906 146.253906 L 79.03125 146.253906 Z M 79.03125 74.917969 " clip-rule="nonzero"/></clipPath><clipPath id="64943cdabb"><path d="M 0.03125 0.917969 L 145.628906 0.917969 L 145.628906 72.253906 L 0.03125 72.253906 Z M 0.03125 0.917969 " clip-rule="nonzero"/></clipPath><clipPath id="b48f34b8a2"><rect x="0" width="146" y="0" height="73"/></clipPath><clipPath id="b306d8b598"><path d="M 248.113281 74.921875 L 295.957031 74.921875 L 295.957031 122.765625 L 248.113281 122.765625 Z M 248.113281 74.921875 " clip-rule="nonzero"/></clipPath><clipPath id="5608a71499"><path d="M 0.113281 0.921875 L 47.957031 0.921875 L 47.957031 48.765625 L 0.113281 48.765625 Z M 0.113281 0.921875 " clip-rule="nonzero"/></clipPath><clipPath id="f51edbc860"><rect x="0" width="48" y="0" height="49"/></clipPath></defs><g clip-path="url(#f9395147c8)"><path fill="#001639" d="M 232.855469 214.75 L 232.855469 146.253906 C 147.902344 146.253906 79.035156 215.121094 79.035156 300.074219 L 147.53125 300.074219 C 147.53125 252.949219 185.730469 214.75 232.855469 214.75 Z M 232.855469 214.75 " fill-opacity="1" fill-rule="nonzero"/></g><g clip-path="url(#3bc6286556)"><g transform="matrix(1, 0, 0, 1, 224, 146)"><g clip-path="url(#6c30f02cf0)"><g clip-path="url(#e3d214991b)"><path fill="#001639" d="M 0.632812 0.253906 L 71.964844 0.253906 L 71.964844 154.066406 L 0.632812 154.066406 Z M 0.632812 0.253906 " fill-opacity="1" fill-rule="nonzero"/></g></g></g></g><g clip-path="url(#24b0448cdc)"><g transform="matrix(1, 0, 0, 1, 79, 74)"><g clip-path="url(#b48f34b8a2)"><g clip-path="url(#64943cdabb)"><path fill="#001639" d="M 145.628906 0.917969 L 145.628906 72.253906 L -0.101562 72.253906 L -0.101562 0.917969 Z M 145.628906 0.917969 " fill-opacity="1" fill-rule="nonzero"/></g></g></g></g><g clip-path="url(#b306d8b598)"><g transform="matrix(1, 0, 0, 1, 248, 74)"><g clip-path="url(#f51edbc860)"><g clip-path="url(#5608a71499)"><path fill="#ff3131" d="M 47.957031 0.921875 L 47.957031 48.765625 L 0.113281 48.765625 L 0.113281 0.921875 Z M 47.957031 0.921875 " fill-opacity="1" fill-rule="nonzero"/></g></g></g></g></svg>