<svg xmlns="http://www.w3.org/2000/svg" xmlns:xlink="http://www.w3.org/1999/xlink" width="500" zoomAndPan="magnify" viewBox="0 0 375 374.999991" height="500" preserveAspectRatio="xMidYMid meet" version="1.0"><defs><g/></defs><g fill="#001639" fill-opacity="1"><g transform="translate(-0.76254, 247.250609)"><g><path d="M 25.609375 1.21875 C 23.003906 1.21875 20.503906 0.882812 18.109375 0.21875 C 15.722656 -0.4375 13.601562 -1.457031 11.75 -2.84375 C 9.894531 -4.226562 8.429688 -6.039062 7.359375 -8.28125 C 6.296875 -10.53125 5.765625 -13.210938 5.765625 -16.328125 C 5.765625 -19.785156 6.414062 -22.6875 7.71875 -25.03125 C 9.019531 -27.375 10.800781 -29.300781 13.0625 -30.8125 C 15.320312 -32.332031 17.929688 -33.5625 20.890625 -34.5 C 23.859375 -35.445312 27.03125 -36.21875 30.40625 -36.8125 L 40.140625 -38.609375 C 42.273438 -39.035156 43.800781 -39.726562 44.71875 -40.6875 C 45.632812 -41.644531 46.09375 -42.890625 46.09375 -44.421875 C 46.09375 -47.066406 45.484375 -49.15625 44.265625 -50.6875 C 43.046875 -52.226562 41.476562 -53.328125 39.5625 -53.984375 C 37.644531 -54.648438 35.617188 -54.984375 33.484375 -54.984375 C 31.179688 -54.984375 29.046875 -54.609375 27.078125 -53.859375 C 25.117188 -53.117188 23.507812 -51.925781 22.25 -50.28125 C 20.988281 -48.644531 20.1875 -46.4375 19.84375 -43.65625 L 6.59375 -46.09375 C 7.707031 -52.75 10.617188 -57.65625 15.328125 -60.8125 C 20.046875 -63.976562 26.394531 -65.5625 34.375 -65.5625 C 37.570312 -65.5625 40.707031 -65.21875 43.78125 -64.53125 C 46.851562 -63.84375 49.628906 -62.65625 52.109375 -60.96875 C 54.585938 -59.289062 56.5625 -56.976562 58.03125 -54.03125 C 59.5 -51.082031 60.234375 -47.347656 60.234375 -42.828125 L 60.234375 -17.859375 C 60.234375 -14.828125 60.691406 -12.765625 61.609375 -11.671875 C 62.535156 -10.585938 64.109375 -10.046875 66.328125 -10.046875 L 67.34375 -10.046875 L 67.34375 0 L 60.375 0 C 56.738281 0 53.832031 -0.671875 51.65625 -2.015625 C 49.476562 -3.359375 48.03125 -5.523438 47.3125 -8.515625 L 46.609375 -8.515625 C 44.941406 -6.171875 42.96875 -4.28125 40.6875 -2.84375 C 38.40625 -1.414062 35.972656 -0.382812 33.390625 0.25 C 30.804688 0.894531 28.210938 1.21875 25.609375 1.21875 Z M 29.0625 -10.375 C 32.4375 -10.375 35.476562 -11.160156 38.1875 -12.734375 C 40.894531 -14.316406 43.046875 -16.546875 44.640625 -19.421875 C 46.242188 -22.304688 47.046875 -25.710938 47.046875 -29.640625 L 30.59375 -25.984375 C 27.226562 -25.347656 24.625 -24.390625 22.78125 -23.109375 C 20.945312 -21.828125 20.03125 -19.972656 20.03125 -17.546875 C 20.03125 -15.023438 20.90625 -13.195312 22.65625 -12.0625 C 24.40625 -10.9375 26.539062 -10.375 29.0625 -10.375 Z M 29.0625 -10.375 "/></g></g></g><g fill="#001639" fill-opacity="1"><g transform="translate(67.534925, 247.250609)"><g><path d="M 51.46875 -64.40625 L 67.15625 -64.40625 L 40.328125 0 L 27.59375 0 L 0.953125 -64.40625 L 16.578125 -64.40625 L 33.921875 -16.90625 Z M 51.46875 -64.40625 "/></g></g></g><g fill="#001639" fill-opacity="1"><g transform="translate(132.75979, 247.250609)"><g><path d="M 17.984375 -76.6875 C 16.328125 -76.6875 14.8125 -77.09375 13.4375 -77.90625 C 12.070312 -78.71875 10.972656 -79.816406 10.140625 -81.203125 C 9.316406 -82.585938 8.90625 -84.09375 8.90625 -85.71875 C 8.90625 -87.382812 9.316406 -88.898438 10.140625 -90.265625 C 10.972656 -91.628906 12.070312 -92.71875 13.4375 -93.53125 C 14.8125 -94.34375 16.328125 -94.75 17.984375 -94.75 C 19.609375 -94.75 21.101562 -94.34375 22.46875 -93.53125 C 23.832031 -92.71875 24.929688 -91.628906 25.765625 -90.265625 C 26.597656 -88.898438 27.015625 -87.382812 27.015625 -85.71875 C 27.015625 -84.09375 26.597656 -82.585938 25.765625 -81.203125 C 24.929688 -79.816406 23.832031 -78.71875 22.46875 -77.90625 C 21.101562 -77.09375 19.609375 -76.6875 17.984375 -76.6875 Z M 10.4375 0 L 10.4375 -64.40625 L 25.21875 -64.40625 L 25.21875 0 Z M 10.4375 0 "/></g></g></g><g fill="#001639" fill-opacity="1"><g transform="translate(165.530311, 247.250609)"><g><path d="M 44.6875 -65.625 C 49.507812 -65.625 53.648438 -64.757812 57.109375 -63.03125 C 60.566406 -61.300781 63.222656 -58.78125 65.078125 -55.46875 C 66.929688 -52.164062 67.859375 -48.125 67.859375 -43.34375 L 67.859375 0 L 53 0 L 53 -40.140625 C 53 -43.378906 52.410156 -45.976562 51.234375 -47.9375 C 50.066406 -49.90625 48.519531 -51.335938 46.59375 -52.234375 C 44.675781 -53.128906 42.585938 -53.578125 40.328125 -53.578125 C 37.640625 -53.578125 35.144531 -53.019531 32.84375 -51.90625 C 30.539062 -50.800781 28.691406 -49.039062 27.296875 -46.625 C 25.910156 -44.21875 25.195312 -41.007812 25.15625 -37 L 25.15625 0 L 10.4375 0 L 10.4375 -64.40625 L 25.15625 -64.40625 L 25.15625 -56.78125 C 27.289062 -59.5625 30.03125 -61.726562 33.375 -63.28125 C 36.726562 -64.84375 40.5 -65.625 44.6875 -65.625 Z M 44.6875 -65.625 "/></g></g></g><g fill="#001639" fill-opacity="1"><g transform="translate(239.65291, 247.250609)"><g><path d="M 51.34375 -64.40625 L 66.640625 -64.40625 L 27.40625 32.265625 L 12.359375 32.265625 L 26.890625 -2.109375 L 1.09375 -64.40625 L 17.28125 -64.40625 L 34 -18.3125 Z M 51.34375 -64.40625 "/></g></g></g><g fill="#001639" fill-opacity="1"><g transform="translate(304.557729, 247.250609)"><g><path d="M 25.609375 1.21875 C 23.003906 1.21875 20.503906 0.882812 18.109375 0.21875 C 15.722656 -0.4375 13.601562 -1.457031 11.75 -2.84375 C 9.894531 -4.226562 8.429688 -6.039062 7.359375 -8.28125 C 6.296875 -10.53125 5.765625 -13.210938 5.765625 -16.328125 C 5.765625 -19.785156 6.414062 -22.6875 7.71875 -25.03125 C 9.019531 -27.375 10.800781 -29.300781 13.0625 -30.8125 C 15.320312 -32.332031 17.929688 -33.5625 20.890625 -34.5 C 23.859375 -35.445312 27.03125 -36.21875 30.40625 -36.8125 L 40.140625 -38.609375 C 42.273438 -39.035156 43.800781 -39.726562 44.71875 -40.6875 C 45.632812 -41.644531 46.09375 -42.890625 46.09375 -44.421875 C 46.09375 -47.066406 45.484375 -49.15625 44.265625 -50.6875 C 43.046875 -52.226562 41.476562 -53.328125 39.5625 -53.984375 C 37.644531 -54.648438 35.617188 -54.984375 33.484375 -54.984375 C 31.179688 -54.984375 29.046875 -54.609375 27.078125 -53.859375 C 25.117188 -53.117188 23.507812 -51.925781 22.25 -50.28125 C 20.988281 -48.644531 20.1875 -46.4375 19.84375 -43.65625 L 6.59375 -46.09375 C 7.707031 -52.75 10.617188 -57.65625 15.328125 -60.8125 C 20.046875 -63.976562 26.394531 -65.5625 34.375 -65.5625 C 37.570312 -65.5625 40.707031 -65.21875 43.78125 -64.53125 C 46.851562 -63.84375 49.628906 -62.65625 52.109375 -60.96875 C 54.585938 -59.289062 56.5625 -56.976562 58.03125 -54.03125 C 59.5 -51.082031 60.234375 -47.347656 60.234375 -42.828125 L 60.234375 -17.859375 C 60.234375 -14.828125 60.691406 -12.765625 61.609375 -11.671875 C 62.535156 -10.585938 64.109375 -10.046875 66.328125 -10.046875 L 67.34375 -10.046875 L 67.34375 0 L 60.375 0 C 56.738281 0 53.832031 -0.671875 51.65625 -2.015625 C 49.476562 -3.359375 48.03125 -5.523438 47.3125 -8.515625 L 46.609375 -8.515625 C 44.941406 -6.171875 42.96875 -4.28125 40.6875 -2.84375 C 38.40625 -1.414062 35.972656 -0.382812 33.390625 0.25 C 30.804688 0.894531 28.210938 1.21875 25.609375 1.21875 Z M 29.0625 -10.375 C 32.4375 -10.375 35.476562 -11.160156 38.1875 -12.734375 C 40.894531 -14.316406 43.046875 -16.546875 44.640625 -19.421875 C 46.242188 -22.304688 47.046875 -25.710938 47.046875 -29.640625 L 30.59375 -25.984375 C 27.226562 -25.347656 24.625 -24.390625 22.78125 -23.109375 C 20.945312 -21.828125 20.03125 -19.972656 20.03125 -17.546875 C 20.03125 -15.023438 20.90625 -13.195312 22.65625 -12.0625 C 24.40625 -10.9375 26.539062 -10.375 29.0625 -10.375 Z M 29.0625 -10.375 "/></g></g></g></svg>