<svg xmlns="http://www.w3.org/2000/svg" xmlns:xlink="http://www.w3.org/1999/xlink" width="500" zoomAndPan="magnify" viewBox="0 0 375 374.999991" height="500" preserveAspectRatio="xMidYMid meet" version="1.0"><defs><g/><clipPath id="c07b8bedc8"><path d="M 92.144531 92.957031 L 227.144531 92.957031 L 227.144531 227.957031 L 92.144531 227.957031 Z M 92.144531 92.957031 " clip-rule="nonzero"/></clipPath><clipPath id="bf023b2e56"><path d="M 220.144531 92.957031 L 282.855469 92.957031 L 282.855469 228.191406 L 220.144531 228.191406 Z M 220.144531 92.957031 " clip-rule="nonzero"/></clipPath><clipPath id="b8a5362248"><path d="M 0.144531 0.957031 L 62.855469 0.957031 L 62.855469 136.191406 L 0.144531 136.191406 Z M 0.144531 0.957031 " clip-rule="nonzero"/></clipPath><clipPath id="2b485acdf3"><rect x="0" width="63" y="0" height="137"/></clipPath><clipPath id="96f4a71650"><path d="M 92.140625 30.246094 L 220.136719 30.246094 L 220.136719 92.957031 L 92.140625 92.957031 Z M 92.140625 30.246094 " clip-rule="nonzero"/></clipPath><clipPath id="1cf6e8bd08"><path d="M 0.140625 0.246094 L 128.136719 0.246094 L 128.136719 62.957031 L 0.140625 62.957031 Z M 0.140625 0.246094 " clip-rule="nonzero"/></clipPath><clipPath id="903c9e885b"><rect x="0" width="129" y="0" height="63"/></clipPath><clipPath id="67bdfa0c9c"><path d="M 240.792969 30.246094 L 282.851562 30.246094 L 282.851562 72.308594 L 240.792969 72.308594 Z M 240.792969 30.246094 " clip-rule="nonzero"/></clipPath><clipPath id="6cdfd80f13"><path d="M 0.792969 0.246094 L 42.851562 0.246094 L 42.851562 42.308594 L 0.792969 42.308594 Z M 0.792969 0.246094 " clip-rule="nonzero"/></clipPath><clipPath id="27209d64f7"><rect x="0" width="43" y="0" height="43"/></clipPath></defs><g clip-path="url(#c07b8bedc8)"><path fill="#050b18" d="M 227.367188 153.171875 L 227.367188 92.957031 C 152.6875 92.957031 92.144531 153.5 92.144531 228.179688 L 152.359375 228.179688 C 152.359375 186.753906 185.941406 153.171875 227.367188 153.171875 Z M 227.367188 153.171875 " fill-opacity="1" fill-rule="nonzero"/></g><g clip-path="url(#bf023b2e56)"><g transform="matrix(1, 0, 0, 1, 220, 92)"><g clip-path="url(#2b485acdf3)"><g clip-path="url(#b8a5362248)"><path fill="#050b18" d="M 0.144531 0.957031 L 62.855469 0.957031 L 62.855469 136.179688 L 0.144531 136.179688 Z M 0.144531 0.957031 " fill-opacity="1" fill-rule="nonzero"/></g></g></g></g><g clip-path="url(#96f4a71650)"><g transform="matrix(1, 0, 0, 1, 92, 30)"><g clip-path="url(#903c9e885b)"><g clip-path="url(#1cf6e8bd08)"><path fill="#050b18" d="M 128.136719 0.246094 L 128.136719 62.957031 L 0.0234375 62.957031 L 0.0234375 0.246094 Z M 128.136719 0.246094 " fill-opacity="1" fill-rule="nonzero"/></g></g></g></g><g clip-path="url(#67bdfa0c9c)"><g transform="matrix(1, 0, 0, 1, 240, 30)"><g clip-path="url(#27209d64f7)"><g clip-path="url(#6cdfd80f13)"><path fill="#ff3131" d="M 42.851562 0.246094 L 42.851562 42.308594 L 0.792969 42.308594 L 0.792969 0.246094 Z M 42.851562 0.246094 " fill-opacity="1" fill-rule="nonzero"/></g></g></g></g><g fill="#050b18" fill-opacity="1"><g transform="translate(-0.855691, 323.279451)"><g><path d="M 2.71875 0 L 28.40625 -71.671875 L 43.671875 -71.671875 L 69.28125 0 L 54.859375 0 L 49.015625 -16.609375 L 23.25 -16.609375 L 17.25 0 Z M 26.46875 -29.234375 L 45.546875 -29.234375 L 36.078125 -57.6875 Z M 26.46875 -29.234375 "/></g></g></g><g fill="#050b18" fill-opacity="1"><g transform="translate(68.972375, 323.279451)"><g><path d="M 67.546875 -71.671875 L 42.828125 0 L 26.421875 0 L 1.890625 -71.671875 L 15.71875 -71.671875 L 34.640625 -16.796875 L 53.71875 -71.671875 Z M 67.546875 -71.671875 "/></g></g></g><g fill="#050b18" fill-opacity="1"><g transform="translate(136.223393, 323.279451)"><g><path d="M 8.03125 -71.671875 L 22.453125 -71.671875 L 22.453125 0 L 8.03125 0 Z M 8.03125 -71.671875 "/></g></g></g><g fill="#050b18" fill-opacity="1"><g transform="translate(164.521324, 323.279451)"><g><path d="M 55.0625 -71.671875 L 69.53125 -71.671875 L 69.53125 0 L 56.5 0 L 22.453125 -49.3125 L 22.453125 0 L 8.03125 0 L 8.03125 -71.671875 L 22.359375 -71.671875 L 55.0625 -24.234375 Z M 55.0625 -71.671875 "/></g></g></g><g fill="#050b18" fill-opacity="1"><g transform="translate(239.850393, 323.279451)"><g><path d="M 65.21875 -71.671875 L 40.296875 -30.140625 L 40.296875 0 L 25.828125 0 L 25.828125 -30.1875 L 0.9375 -71.671875 L 16.609375 -71.671875 L 33.109375 -42.625 L 49.40625 -71.671875 Z M 65.21875 -71.671875 "/></g></g></g><g fill="#050b18" fill-opacity="1"><g transform="translate(303.830553, 323.279451)"><g><path d="M 2.71875 0 L 28.40625 -71.671875 L 43.671875 -71.671875 L 69.28125 0 L 54.859375 0 L 49.015625 -16.609375 L 23.25 -16.609375 L 17.25 0 Z M 26.46875 -29.234375 L 45.546875 -29.234375 L 36.078125 -57.6875 Z M 26.46875 -29.234375 "/></g></g></g></svg>