<svg xmlns="http://www.w3.org/2000/svg" xmlns:xlink="http://www.w3.org/1999/xlink" width="500" zoomAndPan="magnify" viewBox="0 0 375 374.999991" height="500" preserveAspectRatio="xMidYMid meet" version="1.0"><defs><g/></defs><g fill="#001639" fill-opacity="1"><g transform="translate(6.758361, 221.624985)"><g><path d="M 2.609375 0 L 27.25 -68.765625 L 41.890625 -68.765625 L 66.484375 0 L 52.640625 0 L 47.03125 -15.9375 L 22.296875 -15.9375 L 16.546875 0 Z M 25.390625 -28.0625 L 43.703125 -28.0625 L 34.625 -55.359375 Z M 25.390625 -28.0625 "/></g></g></g><g fill="#001639" fill-opacity="1"><g transform="translate(73.762644, 221.624985)"><g><path d="M 64.8125 -68.765625 L 41.09375 0 L 25.34375 0 L 1.8125 -68.765625 L 15.078125 -68.765625 L 33.234375 -16.125 L 51.546875 -68.765625 Z M 64.8125 -68.765625 "/></g></g></g><g fill="#001639" fill-opacity="1"><g transform="translate(138.294076, 221.624985)"><g><path d="M 7.703125 -68.765625 L 21.546875 -68.765625 L 21.546875 0 L 7.703125 0 Z M 7.703125 -68.765625 "/></g></g></g><g fill="#001639" fill-opacity="1"><g transform="translate(165.44754, 221.624985)"><g><path d="M 52.828125 -68.765625 L 66.71875 -68.765625 L 66.71875 0 L 54.21875 0 L 21.546875 -47.3125 L 21.546875 0 L 7.703125 0 L 7.703125 -68.765625 L 21.453125 -68.765625 L 52.828125 -23.25 Z M 52.828125 -68.765625 "/></g></g></g><g fill="#001639" fill-opacity="1"><g transform="translate(237.730376, 221.624985)"><g><path d="M 62.578125 -68.765625 L 38.65625 -28.90625 L 38.65625 0 L 24.78125 0 L 24.78125 -28.953125 L 0.90625 -68.765625 L 15.9375 -68.765625 L 31.765625 -40.890625 L 47.40625 -68.765625 Z M 62.578125 -68.765625 "/></g></g></g><g fill="#001639" fill-opacity="1"><g transform="translate(299.123209, 221.624985)"><g><path d="M 2.609375 0 L 27.25 -68.765625 L 41.890625 -68.765625 L 66.484375 0 L 52.640625 0 L 47.03125 -15.9375 L 22.296875 -15.9375 L 16.546875 0 Z M 25.390625 -28.0625 L 43.703125 -28.0625 L 34.625 -55.359375 Z M 25.390625 -28.0625 "/></g></g></g></svg>